PathFileType        4      (X/Y/Z)      C:\Users\pc\Desktop\IMUTRC\Sujet_03\Sujet_03_Tpose.trc         
DataRate	CameraRate	NumFrames	NumMarkers	Units	OrigDataRate	OrigDataStartFrame	OrigNumFrames
60.0	60.0	4	64	mm	60.0	1	123
Frame#	Time	pHipOrigin			pRightASI			pLeftASI			pRightCSI			pLeftCSI			pRightIschialTub			pLeftIschialTub			pSacrum			pL5SpinalProcess			pL3SpinalProcess			pT12SpinalProcess			pIJ			pT4SpinalProcess			pT8SpinalProcess			pPX			pC7SpinalProcess			pTopOfHead			pRightAuricularis			pLeftAuricularis			pBackOfHead			pRightAcromion			pLeftAcromion			pRightArmLatEpicondyle			pRightArmMedEpicondyle			pLeftArmLatEpicondyle			pLeftArmMedEpicondyle			pRightUlnarStyloid			pRightRadialStyloid			pRightOlecranon			pLeftUlnarStyloid			pLeftRadialStyloid			pLeftOlecranon			pRightTopOfHand			pRightPinky			pRightBallHand			pLeftTopOfHand			pLeftPinky			pLeftBallHand			pRightGreaterTrochanter			pRightKneeLatEpicondyle			pRightKneeMedEpicondyle			pRightPatella			pLeftGreaterTrochanter			pLeftKneeLatEpicondyle			pLeftKneeMedEpicondyle			pLeftPatella			pRightTibialTub			pRightLatMalleolus			pRightMedMalleolus			pLeftTibialTub			pLeftLatMalleolus			pLeftMedMalleolus			pRightHeelFoot			pRightFirstMetatarsal			pRightFifthMetatarsal			pRightPivotFoot			pRightHeelCenter			pRightToe			pLeftHeelFoot			pLeftFirstMetatarsal			pLeftFifthMetatarsal			pLeftPivotFoot			pLeftHeelCenter			pLeftToe			
		X1	Y1	Z1	X2	Y2	Z2	X3	Y3	Z3	X4	Y4	Z4	X5	Y5	Z5	X6	Y6	Z6	X7	Y7	Z7	X8	Y8	Z8	X9	Y9	Z9	X10	Y10	Z10	X11	Y11	Z11	X12	Y12	Z12	X13	Y13	Z13	X14	Y14	Z14	X15	Y15	Z15	X16	Y16	Z16	X17	Y17	Z17	X18	Y18	Z18	X19	Y19	Z19	X20	Y20	Z20	X21	Y21	Z21	X22	Y22	Z22	X23	Y23	Z23	X24	Y24	Z24	X25	Y25	Z25	X26	Y26	Z26	X27	Y27	Z27	X28	Y28	Z28	X29	Y29	Z29	X30	Y30	Z30	X31	Y31	Z31	X32	Y32	Z32	X33	Y33	Z33	X34	Y34	Z34	X35	Y35	Z35	X36	Y36	Z36	X37	Y37	Z37	X38	Y38	Z38	X39	Y39	Z39	X40	Y40	Z40	X41	Y41	Z41	X42	Y42	Z42	X43	Y43	Z43	X44	Y44	Z44	X45	Y45	Z45	X46	Y46	Z46	X47	Y47	Z47	X48	Y48	Z48	X49	Y49	Z49	X50	Y50	Z50	X51	Y51	Z51	X52	Y52	Z52	X53	Y53	Z53	X54	Y54	Z54	X55	Y55	Z55	X56	Y56	Z56	X57	Y57	Z57	X58	Y58	Z58	X59	Y59	Z59	X60	Y60	Z60	X61	Y61	Z61	X62	Y62	Z62	X63	Y63	Z63	X64	Y64	Z64	
1	0.0	-385.95976	985.13162	-764.4685599999999	-305.71864	1083.71356	-632.2999799999999	-322.85585	1082.79652	-906.2660699999999	-349.79394	1153.29407	-653.7931299999999	-363.95077	1152.54897	-879.9584399999999	-441.15418	929.76525	-704.1157699999999	-448.20394	929.42136	-817.1411099999999	-452.96109	1009.26127	-760.3991799999999	-413.58563	1100.90808	-763.0929899999999	-397.25083	1216.16871	-763.4368799999999	-393.41072	1322.48819	-762.6344699999999	-217.96925	1534.72593	-770.8305299999998	-377.93565	1523.37755	-760.6284399999998	-390.3157	1428.75035	-761.3735399999999	-229.5469	1404.79264	-772.2060899999999	-369.05181	1578.97318	-758.6224199999999	-279.81223	1833.6814	-762.8637299999999	-273.45025	1729.36795	-694.4868399999999	-304.4004	1735.04214	-835.3673099999999	-344.06243	1736.93354	-752.6043299999999	-343.43197	1556.50566	-546.8431899999999	-381.89039	1579.48901	-968.5102399999998	-276.71721	1484.17403	-304.0565099999999	-219.34482	1475.23288	-321.3656599999999	-407.73949	1494.77732	-1222.07216	-347.50134	1488.30072	-1223.67699	-148.38875	1434.42454	-79.66795999999991	-180.94371	1472.6537	-60.18083999999991	-236.08082	1461.6492	-328.0142099999999	-391.63395	1440.38531	-1475.11825	-434.84952	1472.42444	-1477.5828	-357.76074	1476.66576	-1215.02241	-127.23948	1436.37325	137.21230000000008	-106.89263	1417.97511	41.03760000000008	-132.22589	1446.34608	-32.440339999999914	-368.82255	1466.00515	-1682.48421	-347.90254	1442.56328	-1587.51312	-380.17093	1458.55419	-1513.06083	-365.78485	951.6023	-601.0632599999999	-398.16787	541.11168	-630.23663	-413.58563	541.68483	-708.7583	-362.46057	541.68483	-680.73122	-402.12261	950.7425700000001	-928.5043199999999	-433.30202	541.11168	-887.92524	-422.58409	541.91409	-808.65848	-383.20863	540.71048	-851.64479	-350.59635	500.64724000000007	-683.13845	-435.70925	89.75542000000004	-635.39499	-448.31857	90.15662000000005	-701.02076	-370.542	501.4496500000001	-853.13499	-459.8389	89.01032000000005	-871.18924	-450.7258	89.58347000000005	-804.933	-477.77852	0.05732000000004039	-659.58196	-320.27667	6.361970000000045	-730.65266	-304.74429	7.90948000000004	-650.46886	-289.957	8.081430000000042	-696.03435	-438.28843	2.6364900000000406	-667.26218	-208.05375	11.463020000000045	-711.91063	-492.73775	-0.11462999999994906	-831.69915	-320.21936	4.642520000000051	-820.40807	-333.74572	4.585210000000055	-900.93576	-303.99919	5.272990000000053	-863.39439	-453.0184	1.8914000000000513	-838.3477	-221.63742	7.508280000000053	-877.20732	
2	0.017	-385.78781	985.13162	-764.5831899999998	-305.48938	1083.71356	-632.4719199999998	-322.79854	1082.79652	-906.3806999999999	-349.622	1153.29407	-653.9077599999999	-363.89345	1152.54897	-880.0157599999999	-440.92492	929.76525	-704.1730899999999	-448.08931	929.42136	-817.1984299999999	-452.78914	1009.26127	-760.3991799999999	-413.471	1100.85077	-763.1503099999999	-397.19351	1216.16871	-763.4368799999999	-393.46803	1322.43087	-762.5771599999999	-218.25583	1534.89788	-770.7158999999999	-378.22222	1523.37755	-760.4564999999999	-390.48765	1428.75035	-761.2589099999999	-229.66153	1404.96459	-772.2060899999999	-369.3957	1578.97318	-758.3931599999999	-280.27075	1833.73871	-762.5771599999999	-273.85146	1729.42526	-694.2002699999999	-304.85892	1735.09946	-835.1380499999999	-344.52095	1736.99086	-752.3750699999999	-343.5466	1556.44835	-546.6712499999999	-382.00502	1579.54633	-968.3382999999999	-276.83184	1484.11672	-303.9418799999999	-219.45945	1475.17556	-321.2510299999999	-407.85412	1494.89195	-1221.95753	-347.61597	1488.41535	-1223.50504	-148.38875	1434.36723	-79.61064999999992	-180.94371	1472.53907	-60.12351999999991	-236.19545	1461.59189	-327.9568999999999	-391.63395	1440.61457	-1475.00362	-434.84952	1472.6537	-1477.52548	-357.87537	1476.78039	-1214.90778	-127.23948	1436.31594	137.2696200000001	-106.83531	1417.9178	41.094910000000084	-132.22589	1446.28876	-32.325709999999916	-368.76523	1466.40636	-1682.36958	-347.90254	1442.90717	-1587.39849	-380.17093	1458.84077	-1512.9462	-365.6129	951.6023	-601.1205699999999	-398.16787	541.11168	-630.29395	-413.52831	541.68483	-708.81561	-362.40326	541.68483	-680.78854	-402.0653	950.7425700000001	-928.5616299999999	-433.35933	541.169	-887.92524	-422.69873	541.97141	-808.65848	-383.26595	540.76779	-851.64479	-350.53904	500.64724000000007	-683.13845	-435.70925	89.75542000000004	-635.33768	-448.31857	90.15662000000005	-701.02076	-370.59932	501.4496500000001	-853.1923	-459.8389	89.01032000000005	-871.18924	-450.7258	89.58347000000005	-804.933	-477.77852	4.038774680446688E-14	-659.58196	-320.21936	6.361970000000045	-730.59534	-304.74429	7.90948000000004	-650.46886	-289.957	8.081430000000042	-696.03435	-438.28843	2.6364900000000406	-667.26218	-207.99643	11.463020000000045	-711.91063	-492.68044	-0.11462999999994906	-831.69915	-320.21936	4.699840000000051	-820.40807	-333.74572	4.585210000000055	-900.93576	-303.94188	5.272990000000053	-863.39439	-453.0184	1.8914000000000513	-838.3477	-221.5801	7.5655900000000535	-877.26464	
3	0.033	-385.67318	985.13162	-764.6404999999999	-305.26012	1083.71356	-632.5865499999999	-322.79854	1082.85383	-906.4953299999999	-349.39274	1153.29407	-653.9650799999998	-363.83614	1152.60629	-880.0730699999999	-440.75298	929.76525	-704.1730899999999	-447.97468	929.36404	-817.2557499999999	-452.6172	1009.26127	-760.4564999999999	-413.35637	1100.85077	-763.1503099999999	-397.1362	1216.16871	-763.4941999999999	-393.46803	1322.43087	-762.5771599999999	-218.54241	1535.12714	-770.5439499999999	-378.45148	1523.37755	-760.2845499999999	-390.65959	1428.69303	-761.1442799999999	-229.83348	1405.13653	-772.1487799999999	-369.73959	1579.03049	-758.2212099999999	-280.72927	1833.85334	-762.3478999999999	-274.30998	1729.48258	-693.9710099999999	-305.31744	1735.15677	-834.9087899999998	-344.97947	1737.04817	-752.0884999999998	-343.66123	1556.39103	-546.5566199999998	-382.17696	1579.66096	-968.2236699999999	-276.94647	1484.00209	-303.8272499999999	-219.57408	1475.11825	-321.19371999999987	-407.96875	1495.0639	-1221.8429	-347.7306	1488.58729	-1223.39041	-148.44606	1434.30991	-79.55332999999992	-181.00103	1472.48176	-60.00888999999991	-236.31008	1461.59189	-327.84226999999987	-391.63395	1440.90115	-1474.88899	-434.84952	1472.94028	-1477.41085	-357.99	1476.95233	-1214.73583	-127.18217	1436.25862	137.3842500000001	-106.83531	1417.9178	41.15223000000009	-132.28321	1446.28876	-32.26838999999991	-368.70792	1466.80756	-1682.25495	-347.84523	1443.25106	-1587.34118	-380.11362	1459.12734	-1512.83157	-365.38364	951.54498	-601.1778899999999	-398.11056	541.11168	-630.35126	-413.471	541.68483	-708.87293	-362.34594	541.62752	-680.84585	-402.00798	950.7425700000001	-928.6762599999998	-433.47396	541.169	-887.92524	-422.75604	541.97141	-808.65848	-383.38058	540.76779	-851.64479	-350.48172	500.64724000000007	-683.19577	-435.65193	89.75542000000004	-635.33768	-448.26125	90.15662000000005	-701.02076	-370.71395	501.50696000000005	-853.1923	-459.8389	89.06764000000005	-871.18924	-450.66848	89.58347000000005	-804.99032	-477.7212	4.038423696674052E-14	-659.52464	-320.21936	6.361970000000045	-730.59534	-304.68697	7.90948000000004	-650.41154	-289.957	8.081430000000042	-695.97703	-438.23111	2.6364900000000406	-667.20486	-207.99643	11.463020000000045	-711.91063	-492.62312	-0.11462999999994906	-831.69915	-320.16204	4.699840000000051	-820.40807	-333.6884	4.642520000000055	-900.93576	-303.88456	5.3303000000000536	-863.39439	-452.96109	1.9487100000000512	-838.3477	-221.52279	7.5655900000000535	-877.26464	
4	0.05	-385.50124	985.13162	-764.7551299999999	-305.08818	1083.71356	-632.7011799999999	-322.74122	1082.85383	-906.6099599999999	-349.27811	1153.29407	-654.0797099999999	-363.83614	1152.60629	-880.1876999999998	-440.52372	929.70793	-704.2303999999999	-447.86005	929.36404	-817.3130599999998	-452.50257	1009.20395	-760.4564999999999	-413.24174	1100.85077	-763.2076199999999	-397.1362	1216.16871	-763.4941999999999	-393.52535	1322.43087	-762.5198399999999	-218.82898	1535.24177	-770.4293199999998	-378.73806	1523.37755	-760.1126099999999	-390.83154	1428.69303	-761.0869699999998	-229.94811	1405.30848	-772.0914599999999	-370.02617	1579.03049	-757.9919499999999	-281.13047	1833.91066	-762.1186399999999	-274.65387	1729.5399	-693.7990599999999	-305.71864	1735.2714	-834.6795299999999	-345.32337	1737.10549	-751.8592399999999	-343.83317	1556.39103	-546.3846699999999	-382.29159	1579.77559	-968.0517199999999	-277.0611	1483.94477	-303.7126199999999	-219.68871	1475.06093	-321.0790899999999	-408.02606	1495.17853	-1221.72827	-347.78791	1488.70192	-1223.21847	-148.44606	1434.2526	-79.49601999999992	-181.00103	1472.42444	-59.95157999999991	-236.42471	1461.53457	-327.7276399999999	-391.63395	1441.13041	-1474.83167	-434.79221	1473.22685	-1477.29622	-358.10463	1477.06696	-1214.6212	-127.12485	1436.20131	137.4415700000001	-106.778	1417.86048	41.20954000000008	-132.28321	1446.23145	-32.21107999999992	-368.6506	1467.20877	-1682.14032	-347.84523	1443.59495	-1587.22655	-380.11362	1459.41392	-1512.71694	-365.2117	951.54498	-601.2925199999999	-398.05324	541.11168	-630.40858	-413.41368	541.68483	-708.93024	-362.28863	541.62752	-680.90317	-401.95067	950.7425700000001	-928.7335799999998	-433.58859	541.169	-887.92524	-422.87067	542.02872	-808.65848	-383.49521	540.76779	-851.64479	-350.42441	500.64724000000007	-683.25308	-435.65193	89.75542000000004	-635.33768	-448.26125	90.15662000000005	-701.02076	-370.77126	501.50696000000005	-853.1923	-459.78158	89.06764000000005	-871.24655	-450.61117	89.58347000000005	-804.99032	-477.7212	4.038423696674052E-14	-659.52464	-320.16204	6.361970000000045	-730.59534	-304.68697	7.90948000000004	-650.41154	-289.89968	8.081430000000042	-695.97703	-438.23111	2.6364900000000406	-667.20486	-207.99643	11.463020000000045	-711.91063	-492.62312	-0.11462999999994906	-831.69915	-320.10473	4.757150000000051	-820.40807	-333.63109	4.642520000000055	-900.93576	-303.88456	5.3303000000000536	-863.39439	-452.90377	1.9487100000000512	-838.40501	-221.52279	7.622910000000053	-877.26464	
